<svg xmlns="http://www.w3.org/2000/svg" viewBox="0 0 62.75 60.12"><defs><style>.cls-1{fill:#fff;}</style></defs><title>lilly flowerAsset 1</title><g id="Layer_2" data-name="Layer 2"><g id="Layer_1-2" data-name="Layer 1"><path class="cls-1" d="M11.36,37.45h1.08V44.9H16v.9H11.36Z"/><path class="cls-1" d="M20.77,37.45V45.8H19.69V37.45Z"/><path class="cls-1" d="M25.13,37.45h1.08V44.9h3.57v.9H25.13Z"/><path class="cls-1" d="M34.29,45.8V42.26l-2.64-4.81h1.23l1.18,2.31c.32.63.57,1.14.83,1.72h0c.24-.54.52-1.09.84-1.72L37,37.45h1.23l-2.8,4.8V45.8Z"/><path class="cls-1" d="M43.15,37.31A14.3,14.3,0,0,1,42,40.25l-.7.09A17.49,17.49,0,0,0,42,37.42Z"/><path class="cls-1" d="M46.61,44.49a3.84,3.84,0,0,0,1.94.55c1.1,0,1.75-.58,1.75-1.43s-.45-1.23-1.58-1.66c-1.37-.48-2.21-1.19-2.21-2.37s1.08-2.27,2.7-2.27a3.8,3.8,0,0,1,1.85.41l-.3.88a3.33,3.33,0,0,0-1.59-.4c-1.14,0-1.57.68-1.57,1.25,0,.78.51,1.17,1.66,1.61,1.41.54,2.13,1.23,2.13,2.46s-1,2.41-2.93,2.41a4.31,4.31,0,0,1-2.13-.53Z"/><path class="cls-1" d="M0,51.62H4.5v.9H1.08V55.3H4.24v.89H1.08V60H0Z"/><path class="cls-1" d="M8.52,51.62H9.6v7.46h3.57V60H8.52Z"/><path class="cls-1" d="M23.52,55.71c0,2.88-1.75,4.4-3.88,4.4s-3.76-1.71-3.76-4.24,1.65-4.39,3.88-4.39S23.52,53.23,23.52,55.71ZM17,55.85c0,1.79,1,3.39,2.67,3.39s2.68-1.58,2.68-3.47c0-1.66-.87-3.4-2.67-3.4S17,54,17,55.85Z"/><path class="cls-1" d="M28.76,60l-2.12-8.36h1.14l1,4.23c.25,1,.47,2.08.62,2.89h0c.13-.83.4-1.82.68-2.9l1.12-4.22h1.13l1,4.24c.24,1,.46,2,.58,2.87h0c.17-.92.41-1.85.67-2.89l1.11-4.22h1.1L34.48,60H33.35L32.3,55.63a25.27,25.27,0,0,1-.54-2.73h0a26.49,26.49,0,0,1-.64,2.73L29.89,60Z"/><path class="cls-1" d="M44.7,56.06H41.45v3h3.62V60h-4.7V51.62h4.52v.9H41.45v2.64H44.7Z"/><path class="cls-1" d="M49,51.73A11.26,11.26,0,0,1,51,51.56a3.42,3.42,0,0,1,2.42.68,2.09,2.09,0,0,1,.66,1.59A2.2,2.2,0,0,1,52.53,56v0a2.09,2.09,0,0,1,1.23,1.69A13.18,13.18,0,0,0,54.4,60H53.29a10.82,10.82,0,0,1-.56-2c-.25-1.15-.69-1.59-1.67-1.62H50V60H49ZM50,55.54h1.1c1.15,0,1.89-.63,1.89-1.59s-.78-1.55-1.92-1.56a4.53,4.53,0,0,0-1.07.1Z"/><path class="cls-1" d="M58,58.67a3.82,3.82,0,0,0,1.94.55c1.1,0,1.75-.58,1.75-1.43s-.45-1.23-1.58-1.66c-1.36-.48-2.21-1.19-2.21-2.37s1.08-2.27,2.7-2.27a3.79,3.79,0,0,1,1.85.41l-.3.88a3.34,3.34,0,0,0-1.59-.4c-1.14,0-1.57.68-1.57,1.25,0,.78.51,1.17,1.66,1.61,1.41.55,2.13,1.23,2.13,2.46s-1,2.41-2.93,2.41a4.33,4.33,0,0,1-2.13-.53Z"/><path class="cls-1" d="M42.28,6.87A6.85,6.85,0,0,0,30.83,1.78a6.85,6.85,0,0,0-9.67,9.67,6.85,6.85,0,0,0,9.67,9.67,6.85,6.85,0,0,0,9.67-9.67A6.83,6.83,0,0,0,42.28,6.87ZM30.83,18.33a6.87,6.87,0,1,1,6.88-6.87A6.88,6.88,0,0,1,30.83,18.33Z"/></g></g></svg>