<svg id="Layer_1" data-name="Layer 1" xmlns="http://www.w3.org/2000/svg" viewBox="0 0 96.38 20.44"><defs><style>.cls-1{fill:#fff;}</style></defs><title>logo_05</title><path class="cls-1" d="M7464.2,8501.74a8.77,8.77,0,0,1-2.9.52,4.44,4.44,0,0,1-4.85-4.77,4.74,4.74,0,0,1,5.12-4.87,5.84,5.84,0,0,1,2.35.43l-.29,1a4.89,4.89,0,0,0-2.09-.41,3.53,3.53,0,0,0-3.8,3.8,3.46,3.46,0,0,0,3.64,3.81,4,4,0,0,0,1.63-.25v-2.82h-1.92v-1h3.11Z" transform="translate(-7452.63 -8487.53)"/><path class="cls-1" d="M7474.13,8497.34c0,3.25-2,5-4.39,5s-4.24-1.93-4.24-4.79,1.86-5,4.38-5S7474.13,8494.54,7474.13,8497.34Zm-7.33.15c0,2,1.09,3.83,3,3.83s3-1.78,3-3.92c0-1.88-1-3.84-3-3.84S7466.81,8495.42,7466.81,8497.49Z" transform="translate(-7452.63 -8487.53)"/><path class="cls-1" d="M7475.72,8492.71h1.22v8.42h4v1h-5.26Z" transform="translate(-7452.63 -8487.53)"/><path class="cls-1" d="M7482.34,8492.84a17.3,17.3,0,0,1,2.59-.2,5.4,5.4,0,0,1,3.83,1.18,4.35,4.35,0,0,1,1.33,3.39,5,5,0,0,1-1.36,3.67,5.82,5.82,0,0,1-4.18,1.36,19.64,19.64,0,0,1-2.21-.11Zm1.22,8.35a7.74,7.74,0,0,0,1.23.07c2.61,0,4-1.46,4-4,0-2.23-1.25-3.64-3.83-3.64a6.89,6.89,0,0,0-1.43.13Z" transform="translate(-7452.63 -8487.53)"/><path class="cls-1" d="M7496.56,8497.73h-3.67v3.41H7497v1h-5.31v-9.44h5.1v1h-3.88v3h3.67Z" transform="translate(-7452.63 -8487.53)"/><path class="cls-1" d="M7452.63,8487.53V8508H7549v-20.44Zm45.69,17.94h-43.19V8490h43.19Zm14.07-3.74a8.77,8.77,0,0,1-2.9.52,4.44,4.44,0,0,1-4.85-4.77,4.74,4.74,0,0,1,5.11-4.87,5.87,5.87,0,0,1,2.36.43l-.3,1a4.89,4.89,0,0,0-2.09-.41,3.53,3.53,0,0,0-3.79,3.8,3.46,3.46,0,0,0,3.64,3.81,4,4,0,0,0,1.63-.25v-2.82h-1.92v-1h3.11Zm5.55.57c-2.49,0-4.25-1.93-4.25-4.79s1.87-5,4.38-5,4.25,2,4.25,4.78C7522.32,8500.59,7520.35,8502.31,7517.94,8502.31Zm11.23-.15h-5.25v-9.44h1.22v8.42h4Zm7.75-1.27a5.82,5.82,0,0,1-4.18,1.36,19.57,19.57,0,0,1-2.21-.11v-9.29a17.26,17.26,0,0,1,2.59-.2,5.41,5.41,0,0,1,3.82,1.18,4.35,4.35,0,0,1,1.33,3.39A5,5,0,0,1,7536.92,8500.88Zm8.26,1.27h-5.31v-9.44h5.1v1h-3.88v3h3.67v1h-3.67v3.41h4.09Zm-12-8.55a6.9,6.9,0,0,0-1.43.13v7.45a7.78,7.78,0,0,0,1.23.07c2.61,0,4-1.46,4-4C7537,8495,7535.76,8493.61,7533.18,8493.61Zm-15.15-.06c-2,0-3,1.86-3,3.94s1.09,3.83,3,3.83,3-1.78,3-3.92C7521,8495.52,7520.05,8493.56,7518,8493.56Z" transform="translate(-7452.63 -8487.53)"/></svg>