<svg id="Layer_1" data-name="Layer 1" xmlns="http://www.w3.org/2000/svg" viewBox="0 0 185.84 46.37"><defs><style>.cls-1{fill:#ffe600;}.cls-2{fill:#4f4400;}.cls-3{fill:#998600;}</style></defs><title>main_logo_02</title><path class="cls-1" d="M6687.55,5968.31V5967a14.17,14.17,0,0,1,.11-1.87q.11-.82.29-1.6t.45-1.6q.27-.82.56-1.84s0-.09,0-.18,0-.15,0-.18-.11-.1-.43-.24-.7-.35-1.16-.62a15.54,15.54,0,0,1-1.49-1,9,9,0,0,1-1.48-1.42,6.71,6.71,0,0,1-1.07-1.81,4.84,4.84,0,0,1-.31-2.22h.13l.24,0,.26,0h.15a10.85,10.85,0,0,0,.46,1.1,9.81,9.81,0,0,0,.72,1.24,13.17,13.17,0,0,0,.94,1.23A9,9,0,0,0,6687,5957a5.25,5.25,0,0,0,1.2.76,3.08,3.08,0,0,0,1.28.28l.7-1.55.4-.89a4.26,4.26,0,0,0,.2-.48,2.06,2.06,0,0,0,.07-.34c0-.12,0-.27,0-.44s.06-.44.12-.79q0-.1.2-.21a1.09,1.09,0,0,1,.4-.13.79.79,0,0,1,.39,0,.29.29,0,0,1,.18.29,10.79,10.79,0,0,1-.29,2.55,19.28,19.28,0,0,1-.73,2.36q-.44,1.15-.93,2.28a22.77,22.77,0,0,0-.85,2.33,14.54,14.54,0,0,0-.52,2.49,10.2,10.2,0,0,0,.06,2.76,1.18,1.18,0,0,1-.29.38.64.64,0,0,1-.39.11.75.75,0,0,1-.42-.11A1,1,0,0,1,6687.55,5968.31Z" transform="translate(-6628.83 -5935.21)"/><path class="cls-1" d="M6696.22,5954.52l-.17,0a1,1,0,0,1,.12.34v4.42q.12.2.71.18t1.39-.09q.8-.07,1.71-.23l1.68-.29,1.29-.23a1.37,1.37,0,0,1,.59,0h.28l.45,0,.44,0h.27a1.08,1.08,0,0,1-.65,1,5.48,5.48,0,0,1-1.62.56,21.17,21.17,0,0,1-2.11.31l-2.12.18q-1,.07-1.67.17t-.76.24a3.87,3.87,0,0,0-.21.88,9.73,9.73,0,0,0-.07,1q0,.5,0,1t0,.89v1.64a.68.68,0,0,0,.44.37,3,3,0,0,0,.73.16,4.42,4.42,0,0,0,.73,0l.54,0a16.14,16.14,0,0,0,1.66-.09l1.65-.17,1.64-.17a16,16,0,0,1,1.65-.09h.15l.15,0,.21.07.18.1a.37.37,0,0,0,.15,0l.15.1c.06,0,.1.07.1.1a.89.89,0,0,1-.51.77,4.57,4.57,0,0,1-1.29.49,12.49,12.49,0,0,1-1.71.27q-.93.09-1.78.12t-1.46,0h-.78a7.72,7.72,0,0,1-1.72-.17,3,3,0,0,1-1.25-.57,2.38,2.38,0,0,1-.74-1.09,5.59,5.59,0,0,1-.24-1.76,12.89,12.89,0,0,1,.13-1.86,13.14,13.14,0,0,0,.13-1.88,1.59,1.59,0,0,0-.12-.66,1.39,1.39,0,0,1-.12-.59v-.15a1.84,1.84,0,0,0,.17-.23,1.89,1.89,0,0,1,.17-.23v-5.4a1.53,1.53,0,0,1,.09-.59.54.54,0,0,1,.41-.27,3.81,3.81,0,0,1,.93,0l1.64.07q1,0,2.55.07t3.71,0l.49.21a2,2,0,0,1,.45.28,1.37,1.37,0,0,1,.33.39,1.09,1.09,0,0,1,.12.54.28.28,0,0,1-.09.17c-.06.07-.1.09-.13.07l-1.17-.46Z" transform="translate(-6628.83 -5935.21)"/><path class="cls-1" d="M6708.09,5964.45l.11-1.94q.06-1.09.16-2.17t.22-2.1a17.93,17.93,0,0,1,.29-1.77,5.88,5.88,0,0,1,.37-1.17q.24-.41.49-.27t.44.54a5.57,5.57,0,0,1,.06,1.29q0,.81-.18,1.83t-.28,2.1q-.13,1.07-.23,2.14a13.27,13.27,0,0,0,0,1.94,1.8,1.8,0,0,0,.09.52,2.32,2.32,0,0,0,.23.52,1.87,1.87,0,0,0,.37.44.81.81,0,0,0,.51.2l4.91.44a.27.27,0,0,1,.26.24,2.23,2.23,0,0,1,0,.34.61.61,0,0,1-.27.59,2.74,2.74,0,0,1-.71.24h-.35l-.54,0h-.87a11.52,11.52,0,0,1-2.06-.17,4.08,4.08,0,0,1-1.6-.62,3,3,0,0,1-1-1.22A4.65,4.65,0,0,1,6708.09,5964.45Z" transform="translate(-6628.83 -5935.21)"/><path class="cls-1" d="M6717.5,5964.45l.11-1.94q.06-1.09.16-2.17t.22-2.1a17.93,17.93,0,0,1,.29-1.77,5.91,5.91,0,0,1,.37-1.17q.24-.41.49-.27t.44.54a5.57,5.57,0,0,1,.06,1.29q0,.81-.18,1.83t-.28,2.1q-.13,1.07-.23,2.14a13.27,13.27,0,0,0,0,1.94,1.8,1.8,0,0,0,.09.52,2.32,2.32,0,0,0,.23.52,1.87,1.87,0,0,0,.37.44.81.81,0,0,0,.51.2l4.91.44a.27.27,0,0,1,.26.24,2.23,2.23,0,0,1,0,.34.61.61,0,0,1-.27.59,2.74,2.74,0,0,1-.71.24H6724l-.54,0h-.87a11.52,11.52,0,0,1-2.06-.17,4.08,4.08,0,0,1-1.6-.62,3,3,0,0,1-1-1.22A4.65,4.65,0,0,1,6717.5,5964.45Z" transform="translate(-6628.83 -5935.21)"/><path class="cls-1" d="M6726.17,5961.6a5.2,5.2,0,0,1,1.22-3.65,4.66,4.66,0,0,1,1.49-1.16,6.13,6.13,0,0,1,1.93-.49,15.76,15.76,0,0,1,3.5.93,11.36,11.36,0,0,1,3,1.68,8.72,8.72,0,0,1,2.09,2.39,6.72,6.72,0,0,1,.9,3.08,3.66,3.66,0,0,1-1,2,5.34,5.34,0,0,1-1.78,1.14,10.86,10.86,0,0,1-2.2.6l-2.15.32a7.61,7.61,0,0,1-2.8-.5,6.58,6.58,0,0,1-2.2-1.38,6.23,6.23,0,0,1-1.44-2.15A7.28,7.28,0,0,1,6726.17,5961.6Zm1.15-.12a4.32,4.32,0,0,0,.48,2.1,6,6,0,0,0,1.31,1.71,7.65,7.65,0,0,0,1.81,1.22,6.8,6.8,0,0,0,2,.63,8.65,8.65,0,0,0,.9-.06q.56-.06,1.22-.2a10.43,10.43,0,0,0,1.33-.37,6.46,6.46,0,0,0,1.22-.56,3.27,3.27,0,0,0,.9-.78,1.64,1.64,0,0,0,.35-1,5.69,5.69,0,0,0-.74-2.17,7.18,7.18,0,0,0-1.4-1.68,9.15,9.15,0,0,0-1.81-1.25,12.12,12.12,0,0,0-1.93-.82,9.62,9.62,0,0,0-1.78-.4,4.81,4.81,0,0,0-1.37,0,3.55,3.55,0,0,0-1.23.71,3.84,3.84,0,0,0-.76.94,3.61,3.61,0,0,0-.39,1A4.78,4.78,0,0,0,6727.32,5961.47Z" transform="translate(-6628.83 -5935.21)"/><path class="cls-1" d="M6749.94,5965.58h-.12q-1.07,1-1.73,1.51t-1,.79a2,2,0,0,1-.56.29l-.24,0a2.52,2.52,0,0,1-1.6-.52,4.29,4.29,0,0,1-1.12-1.35,8.46,8.46,0,0,1-.73-1.89,17.91,17.91,0,0,1-.43-2.11q-.15-1-.21-2t-.06-1.56v-.52a6.84,6.84,0,0,1,.07-1,3.24,3.24,0,0,1,.27-.93.72.72,0,0,1,.63-.42q.17,0,.24.46t.13,1.2q.06.73.13,1.68t.16,2q.09,1,.24,2a10.52,10.52,0,0,0,.41,1.7,3.74,3.74,0,0,0,.63,1.2,1.15,1.15,0,0,0,.92.45,1.6,1.6,0,0,0,.84-.24,3.93,3.93,0,0,0,.74-.59,7.18,7.18,0,0,0,.62-.71q.28-.37.5-.61a3,3,0,0,0,.21-.78,8.19,8.19,0,0,0,.07-.9q0-.46,0-.88t0-.71a1,1,0,0,1,.29-.48.34.34,0,0,1,.32-.09.64.64,0,0,1,.29.26,2.32,2.32,0,0,1,.27.55,10.86,10.86,0,0,0,.44,1.73,7.85,7.85,0,0,0,.84,1.77,5,5,0,0,0,1.28,1.37,2.91,2.91,0,0,0,1.76.55,3.1,3.1,0,0,0,1.11-.22,3.45,3.45,0,0,0,1.77-1.51,2.18,2.18,0,0,0,.29-1.1,5.68,5.68,0,0,0-.29-1.81q-.29-.88-.66-1.75t-.66-1.73a5.49,5.49,0,0,1-.29-1.77q.32-.68.7-.57a1.51,1.51,0,0,1,.76.72,8.3,8.3,0,0,1,.72,1.57q.34,1,.61,2a17.14,17.14,0,0,1,.4,1.86,6.74,6.74,0,0,1,.11,1.28,4.08,4.08,0,0,1-.39,1.76,5.14,5.14,0,0,1-1.06,1.49,5.27,5.27,0,0,1-1.54,1,4.32,4.32,0,0,1-1.79.39,2.64,2.64,0,0,1-1.43-.44,7.49,7.49,0,0,1-1.25-1q-.55-.54-1-1T6749.94,5965.58Z" transform="translate(-6628.83 -5935.21)"/><path class="cls-2" d="M6774.57,5967.42q0-.24-.1-.78t-.12-1.2q-.07-.66-.15-1.4t-.15-1.42q-.07-.67-.13-1.2t-.09-.79a2.7,2.7,0,0,1,0-.61,4,4,0,0,0,0-.76,3.49,3.49,0,0,0-.2-.73.91.91,0,0,0-.4-.49,8,8,0,0,1-1.76.73,6.89,6.89,0,0,1-1.86.24,3.92,3.92,0,0,1-2.88-1.76c-.07,0-.11,0-.13.15a2.89,2.89,0,0,0-.06.34,2.27,2.27,0,0,0,0,.41q0,.22,0,.37l0,8.15a.4.4,0,0,1-.09.26.49.49,0,0,1-.21.16l-.26.09a1,1,0,0,1-.26,0,.51.51,0,0,1-.52-.33,2.86,2.86,0,0,1-.18-.65v-3.52q0-1.61.13-3.17t.13-3.17a2,2,0,0,0-.2-.88q-.2-.39-.42-.77t-.4-.76a1.91,1.91,0,0,1-.18-.84q0-.51.49-.51a1.49,1.49,0,0,1,1,.37,3.92,3.92,0,0,1,.73.88,10.67,10.67,0,0,1,.61,1.15,5.77,5.77,0,0,0,.7,1.15,4.32,4.32,0,0,0,.93.88,2.23,2.23,0,0,0,1.31.37,3,3,0,0,0,1.62-.31,3.16,3.16,0,0,0,1-.9,5.33,5.33,0,0,0,.66-1.2q.26-.65.45-1.2a4.37,4.37,0,0,1,.41-.89.55.55,0,0,1,.59-.27.39.39,0,0,1,.4.12,1.24,1.24,0,0,1,.21.43,2.23,2.23,0,0,1,.09.5q0,.24,0,.34a11.25,11.25,0,0,1-.13,1.77,11.42,11.42,0,0,0-.13,1.79,17.72,17.72,0,0,0,.17,2.47q.17,1.22.4,2.45t.41,2.45a16.45,16.45,0,0,1,.18,2.44.87.87,0,0,1,0,.32.31.31,0,0,1-.15.17.49.49,0,0,1-.22,0h-.27a2.09,2.09,0,0,1-.57-.07Q6774.67,5967.81,6774.57,5967.42Z" transform="translate(-6628.83 -5935.21)"/><path class="cls-2" d="M6777.79,5962.93a4.56,4.56,0,0,1,.59-2.34,5.44,5.44,0,0,1,1.54-1.68,6.72,6.72,0,0,1,2.14-1,8.82,8.82,0,0,1,2.38-.33,3,3,0,0,1,1.18.23,4.41,4.41,0,0,1,1,.63,5.1,5.1,0,0,1,.89.93,7.29,7.29,0,0,1,.67,1.09,5.7,5.7,0,0,1,.43,1.14,4.49,4.49,0,0,1,.15,1.11,4.83,4.83,0,0,1-1.81,3.87,6,6,0,0,1-1.88,1,6.67,6.67,0,0,1-2.15.35,5.8,5.8,0,0,1-2.06-.35,5,5,0,0,1-1.64-1,4.36,4.36,0,0,1-1.09-1.57A5.38,5.38,0,0,1,6777.79,5962.93Zm1.2-.2a3.85,3.85,0,0,0,.28,1.45,3.68,3.68,0,0,0,.78,1.21,3.79,3.79,0,0,0,1.18.82,3.55,3.55,0,0,0,1.46.31,2.53,2.53,0,0,0,1-.13,5.51,5.51,0,0,0,1.2-.54,7,7,0,0,0,1.15-.85,5.05,5.05,0,0,0,.92-1.1,3.16,3.16,0,0,0,.45-1.25,2.28,2.28,0,0,0-.22-1.29,3.46,3.46,0,0,0-1.11-1.25,8.8,8.8,0,0,0-2.22-1.11,6.47,6.47,0,0,0-1.67.23,5.4,5.4,0,0,0-1.57.7,4,4,0,0,0-1.17,1.17A2.92,2.92,0,0,0,6779,5962.73Z" transform="translate(-6628.83 -5935.21)"/><path class="cls-2" d="M6790.91,5962.93a4.56,4.56,0,0,1,.59-2.34,5.44,5.44,0,0,1,1.54-1.68,6.72,6.72,0,0,1,2.14-1,8.82,8.82,0,0,1,2.38-.33,3,3,0,0,1,1.18.23,4.41,4.41,0,0,1,1,.63,5.1,5.1,0,0,1,.89.93,7.29,7.29,0,0,1,.67,1.09,5.7,5.7,0,0,1,.43,1.14,4.49,4.49,0,0,1,.15,1.11,4.82,4.82,0,0,1-1.81,3.87,6,6,0,0,1-1.88,1,6.67,6.67,0,0,1-2.15.35,5.8,5.8,0,0,1-2.06-.35,5,5,0,0,1-1.64-1,4.36,4.36,0,0,1-1.09-1.57A5.38,5.38,0,0,1,6790.91,5962.93Zm1.2-.2a3.85,3.85,0,0,0,.28,1.45,3.68,3.68,0,0,0,.78,1.21,3.79,3.79,0,0,0,1.18.82,3.55,3.55,0,0,0,1.46.31,2.53,2.53,0,0,0,1-.13,5.52,5.52,0,0,0,1.2-.54,7,7,0,0,0,1.15-.85,5.05,5.05,0,0,0,.92-1.1,3.16,3.16,0,0,0,.45-1.25,2.28,2.28,0,0,0-.22-1.29,3.46,3.46,0,0,0-1.11-1.25A8.8,8.8,0,0,0,6797,5959a6.48,6.48,0,0,0-1.67.23,5.4,5.4,0,0,0-1.57.7,4,4,0,0,0-1.17,1.17A2.92,2.92,0,0,0,6792.11,5962.73Z" transform="translate(-6628.83 -5935.21)"/><path class="cls-2" d="M6804.34,5958.39a.27.27,0,0,1,.16-.28,1,1,0,0,1,.35-.06.26.26,0,0,1,.21.07.43.43,0,0,1,.09.17.7.7,0,0,0,.07.18.18.18,0,0,0,.17.09,1.81,1.81,0,0,0,.83-.27l1.06-.59a12.2,12.2,0,0,1,1.22-.59,3.33,3.33,0,0,1,1.28-.27,2.86,2.86,0,0,1,1.53.43,4.68,4.68,0,0,1,1.25,1.14,7.65,7.65,0,0,1,.94,1.59,14.42,14.42,0,0,1,.66,1.79,12.63,12.63,0,0,1,.39,1.78,11,11,0,0,1,.12,1.5q0,.22,0,.66a8.24,8.24,0,0,1-.12.88,2.42,2.42,0,0,1-.28.77.57.57,0,0,1-.49.33h-.17l-.24,0-.21-.09a.16.16,0,0,1-.09-.15,14.21,14.21,0,0,0,0-3.53,12.48,12.48,0,0,0-.71-2.89,5.93,5.93,0,0,0-1.2-2,2.09,2.09,0,0,0-1.51-.73,4,4,0,0,0-1.42.24,3.27,3.27,0,0,0-1.92,1.83,3.64,3.64,0,0,0-.28,1.44,8.26,8.26,0,0,0,.15,1.55q.15.77.33,1.54t.33,1.55a8.47,8.47,0,0,1,.15,1.56,1.43,1.43,0,0,1-1.15-.56,4.27,4.27,0,0,1-.74-1.44,12.33,12.33,0,0,1-.44-2q-.16-1.1-.22-2.16t-.06-2Z" transform="translate(-6628.83 -5935.21)"/><path class="cls-1" d="M6652,5940a18.32,18.32,0,0,0-15,7.77c6.85,10.33,17.66,17,29.82,17,.81,0,1.61,0,2.4-.09A18.36,18.36,0,0,0,6652,5940Z" transform="translate(-6628.83 -5935.21)"/><circle class="cls-2" cx="18.4" cy="13.84" r="5.12"/><circle class="cls-2" cx="30.78" cy="16.07" r="4.15"/><circle class="cls-2" cx="35.01" cy="25.04" r="1.41"/><path class="cls-2" d="M6652,5981.58a23.18,23.18,0,1,1,23.18-23.18,23.21,23.21,0,0,1-23.18,23.18Zm-6.81-6.2a18.28,18.28,0,0,0,14.19-.24,4.79,4.79,0,0,1,3-8.56,4.81,4.81,0,0,1,4.34,2.75,18.3,18.3,0,1,0-29,.45,4.79,4.79,0,0,1,7.51,5.61Zm6.4-2.7a2.57,2.57,0,1,1,2.57-2.57,2.58,2.58,0,0,1-2.57,2.57Zm-14.38-9.79a1.31,1.31,0,1,1,1.31-1.31,1.31,1.31,0,0,1-1.31,1.31Z" transform="translate(-6628.83 -5935.21)"/><path class="cls-3" d="M6662.35,5966.57a4.81,4.81,0,0,1,4.34,2.75,18.22,18.22,0,0,0,2.48-4.6l-.46,0c-.62,0-1.24.06-1.87.06l-1.14,0c-.86,0-1.71-.09-2.55-.19-10.62-1.19-19.94-7.49-26.1-16.73a18.25,18.25,0,0,0,.63,21.9,4.79,4.79,0,0,1,7.51,5.61,18.28,18.28,0,0,0,14.19-.24,4.79,4.79,0,0,1,3-8.56Zm-25.13-3.68a1.31,1.31,0,1,1,1.31-1.31A1.31,1.31,0,0,1,6637.22,5962.9Zm14.38,9.79a2.57,2.57,0,1,1,2.57-2.57A2.58,2.58,0,0,1,6651.6,5972.69Z" transform="translate(-6628.83 -5935.21)"/></svg>