<svg id="Layer_1" data-name="Layer 1" xmlns="http://www.w3.org/2000/svg" viewBox="0 0 88.87 88.87"><defs><style>.cls-1{fill:#ffe600;}.cls-2{fill:#4f4400;}.cls-3{fill:#998600;}</style></defs><title>main_logo_01</title><path class="cls-1" d="M7203.48,5158.38a35.12,35.12,0,0,0-28.72,14.89c13.14,19.79,33.85,32.57,57.15,32.57,1.54,0,3.08-.06,4.6-.17a35.19,35.19,0,0,0-33-47.28Z" transform="translate(-7159.05 -5149.11)"/><circle class="cls-2" cx="35.27" cy="26.53" r="9.8"/><circle class="cls-2" cx="59" cy="30.79" r="7.96"/><circle class="cls-2" cx="67.1" cy="47.99" r="2.7"/><path class="cls-2" d="M7203.48,5238a44.43,44.43,0,1,1,44.43-44.43,44.48,44.48,0,0,1-44.43,44.43Zm-13-11.88a35.05,35.05,0,0,0,27.19-.47,9.18,9.18,0,0,1,5.68-16.41,9.22,9.22,0,0,1,8.31,5.27,35.08,35.08,0,1,0-55.58.86,9.18,9.18,0,0,1,14.4,10.75Zm12.26-5.17a4.93,4.93,0,1,1,4.93-4.93,4.94,4.94,0,0,1-4.93,4.93Zm-27.57-18.76a2.52,2.52,0,1,1,2.52-2.52,2.52,2.52,0,0,1-2.52,2.52Z" transform="translate(-7159.05 -5149.11)"/><path class="cls-3" d="M7223.3,5209.22a9.22,9.22,0,0,1,8.31,5.27,34.92,34.92,0,0,0,4.76-8.81l-.88,0c-1.19.07-2.38.12-3.58.12q-1.09,0-2.18,0c-1.64-.06-3.27-.18-4.89-.36-20.36-2.29-38.22-14.35-50-32.07a35,35,0,0,0,1.21,42,9.18,9.18,0,0,1,14.4,10.75,35.05,35.05,0,0,0,27.19-.47,9.18,9.18,0,0,1,5.68-16.41Zm-48.17-7a2.52,2.52,0,1,1,2.52-2.52A2.52,2.52,0,0,1,7175.13,5202.17Zm27.57,18.76a4.93,4.93,0,1,1,4.93-4.93A4.94,4.94,0,0,1,7202.7,5220.93Z" transform="translate(-7159.05 -5149.11)"/></svg>