<svg id="Layer_1" data-name="Layer 1" xmlns="http://www.w3.org/2000/svg" viewBox="0 0 54.34 45.26"><defs><style>.cls-1{fill:#fff;}</style></defs><title>logo_03</title><path class="cls-1" d="M7075.22,8513.24a8.9,8.9,0,0,1,1.67-.15,2.93,2.93,0,0,1,1.95.51,1.48,1.48,0,0,1,.59,1.25,1.68,1.68,0,0,1-1.2,1.56v0a1.83,1.83,0,0,1,1.46,1.78,1.91,1.91,0,0,1-.6,1.42,3.55,3.55,0,0,1-2.45.66,11,11,0,0,1-1.42-.08Zm.92,2.9h.83c1,0,1.53-.5,1.53-1.19s-.63-1.16-1.56-1.16a4,4,0,0,0-.81.06Zm0,3.4a4.91,4.91,0,0,0,.77,0c.95,0,1.82-.35,1.82-1.38s-.83-1.37-1.83-1.37h-.76Z" transform="translate(-7075.22 -8475.09)"/><path class="cls-1" d="M7083.53,8513.14v4.19c0,1.59.7,2.26,1.65,2.26s1.72-.69,1.72-2.26v-4.19h.93v4.13c0,2.18-1.15,3.07-2.68,3.07s-2.54-.83-2.54-3v-4.17Z" transform="translate(-7075.22 -8475.09)"/><path class="cls-1" d="M7091.13,8513.14h.91v6.32h3v.77h-3.94Z" transform="translate(-7075.22 -8475.09)"/><path class="cls-1" d="M7097.79,8513.14h.91v6.32h3v.77h-3.94Z" transform="translate(-7075.22 -8475.09)"/><path class="cls-1" d="M7104.33,8519.12a3.24,3.24,0,0,0,1.64.46c.94,0,1.48-.49,1.48-1.21s-.38-1-1.33-1.41c-1.16-.41-1.87-1-1.87-2a2,2,0,0,1,2.29-1.92,3.21,3.21,0,0,1,1.57.35l-.25.75a2.84,2.84,0,0,0-1.35-.34c-1,0-1.34.58-1.34,1.06,0,.66.43,1,1.41,1.37,1.2.46,1.81,1,1.81,2.08s-.81,2-2.48,2a3.66,3.66,0,0,1-1.81-.45Z" transform="translate(-7075.22 -8475.09)"/><path class="cls-1" d="M7115,8516.91h-2.75v2.55h3.07v.77h-4v-7.08h3.83v.77h-2.91v2.24H7115Z" transform="translate(-7075.22 -8475.09)"/><path class="cls-1" d="M7119.83,8520.23v-3l-2.24-4.08h1l1,2c.27.54.48,1,.7,1.46h0c.2-.46.44-.93.71-1.46l1-2h1l-2.37,4.07v3Z" transform="translate(-7075.22 -8475.09)"/><path class="cls-1" d="M7129.24,8516.91h-2.75v2.55h3.07v.77h-4v-7.08h3.83v.77h-2.91v2.24h2.75Z" transform="translate(-7075.22 -8475.09)"/><path class="cls-1" d="M7102.18,8475.09a15.33,15.33,0,1,0,15.33,15.33A15.33,15.33,0,0,0,7102.18,8475.09Zm0,24.82a9.49,9.49,0,1,1,9.49-9.49A9.49,9.49,0,0,1,7102.18,8499.91Z" transform="translate(-7075.22 -8475.09)"/><circle class="cls-1" cx="26.96" cy="15.33" r="2.19"/></svg>