<svg id="Layer_1" data-name="Layer 1" xmlns="http://www.w3.org/2000/svg" viewBox="0 0 97.48 25.65"><defs><style>.cls-1{fill:#fff;}</style></defs><title>logo_02</title><path class="cls-1" d="M6865.44,8501.52a8.37,8.37,0,0,0,4.24,1.2c2.42,0,3.83-1.28,3.83-3.12s-1-2.69-3.45-3.64c-3-1.06-4.84-2.61-4.84-5.19,0-2.85,2.36-5,5.92-5a8.31,8.31,0,0,1,4,.9l-.65,1.93a7.29,7.29,0,0,0-3.48-.87c-2.5,0-3.45,1.49-3.45,2.74,0,1.71,1.11,2.55,3.64,3.53,3.1,1.2,4.67,2.69,4.67,5.38s-2.09,5.27-6.41,5.27a9.46,9.46,0,0,1-4.67-1.17Z" transform="translate(-6855.59 -8485.79)"/><path class="cls-1" d="M6879.59,8504.4l-4.65-18.31h2.5l2.17,9.26c.54,2.28,1,4.56,1.36,6.33h.05c.3-1.82.87-4,1.49-6.36l2.45-9.24h2.47l2.23,9.29c.52,2.17,1,4.35,1.28,6.28h.05c.38-2,.9-4,1.47-6.33l2.42-9.24h2.42l-5.19,18.31h-2.47l-2.31-9.54a55.18,55.18,0,0,1-1.19-6h-.05a57.33,57.33,0,0,1-1.41,6l-2.61,9.54Z" transform="translate(-6855.59 -8485.79)"/><path class="cls-1" d="M6906.51,8495.81h-7.12v6.6h7.93v2H6897v-18.31h9.89v2h-7.53v5.79h7.12Z" transform="translate(-6855.59 -8485.79)"/><path class="cls-1" d="M6917.32,8495.81h-7.12v6.6h7.93v2h-10.3v-18.31h9.89v2h-7.53v5.79h7.12Z" transform="translate(-6855.59 -8485.79)"/><path class="cls-1" d="M6922.56,8488.1H6917v-2h13.56v2H6925v16.3h-2.39Z" transform="translate(-6855.59 -8485.79)"/><path class="cls-1" d="M6934.87,8504.4v-7.77l-5.79-10.54h2.69l2.58,5.05c.71,1.38,1.25,2.5,1.82,3.78h.05c.52-1.2,1.14-2.39,1.85-3.78l2.63-5.05h2.69l-6.14,10.51v7.8Z" transform="translate(-6855.59 -8485.79)"/><path class="cls-1" d="M6858.72,8511.24a2.65,2.65,0,0,1-1.09.2,1.93,1.93,0,0,1-2-2.09,2.06,2.06,0,0,1,2.16-2.17,2.21,2.21,0,0,1,1,.18l-.13.43a2,2,0,0,0-.83-.17,1.54,1.54,0,0,0-1.61,1.7,1.5,1.5,0,0,0,1.59,1.66,2.15,2.15,0,0,0,.87-.17Z" transform="translate(-6855.59 -8485.79)"/><path class="cls-1" d="M6868.81,8510.07l-.43,1.3h-.55l1.4-4.13h.64l1.41,4.13h-.57l-.44-1.3Zm1.35-.42-.4-1.19c-.09-.27-.15-.51-.21-.75h0c-.06.25-.13.5-.21.75l-.4,1.2Z" transform="translate(-6855.59 -8485.79)"/><path class="cls-1" d="M6880.63,8507.24h2.22v.45h-1.69v1.37h1.56v.44h-1.56v1.87h-.53Z" transform="translate(-6855.59 -8485.79)"/><path class="cls-1" d="M6894.48,8509.44h-1.61v1.49h1.79v.45h-2.32v-4.13h2.23v.45h-1.7v1.3h1.61Z" transform="translate(-6855.59 -8485.79)"/><path class="cls-1" d="M6905,8507.7h-1.26v-.45h3.06v.45h-1.26v3.68H6905Z" transform="translate(-6855.59 -8485.79)"/><path class="cls-1" d="M6918.1,8509.44h-1.61v1.49h1.79v.45H6916v-4.13h2.23v.45h-1.7v1.3h1.61Z" transform="translate(-6855.59 -8485.79)"/><path class="cls-1" d="M6927.7,8507.3a5.58,5.58,0,0,1,1-.09,1.69,1.69,0,0,1,1.2.34,1,1,0,0,1,.32.78,1.09,1.09,0,0,1-.78,1.05v0a1,1,0,0,1,.61.83,6.46,6.46,0,0,0,.32,1.13h-.55a5.35,5.35,0,0,1-.28-1c-.12-.57-.34-.78-.83-.8h-.5v1.79h-.53Zm.53,1.88h.55c.57,0,.93-.31.93-.79s-.39-.76-.95-.77a2.26,2.26,0,0,0-.53,0Z" transform="translate(-6855.59 -8485.79)"/><path class="cls-1" d="M6940.26,8507.24v4.13h-.53v-4.13Z" transform="translate(-6855.59 -8485.79)"/><path class="cls-1" d="M6950.59,8510.07l-.43,1.3h-.55l1.4-4.13h.64l1.41,4.13h-.57l-.44-1.3Zm1.35-.42-.4-1.19c-.09-.27-.15-.51-.21-.75h0c-.06.25-.13.5-.21.75l-.4,1.2Z" transform="translate(-6855.59 -8485.79)"/></svg>