<svg id="Layer_1" data-name="Layer 1" xmlns="http://www.w3.org/2000/svg" viewBox="0 0 54.84 54.84"><defs><style>.cls-1{fill:#fff;}</style></defs><title>logo_04</title><path class="cls-1" d="M7281.86,8491.88l-1.78-12.84h2.21l.8,8.5,1.1-8.5h1.9l1.08,8.45.84-8.45h2.22l-1.8,12.84h-2.22l-1.08-8.4-1.06,8.4Z" transform="translate(-7273.64 -8472.07)"/><path class="cls-1" d="M7290,8491.88l2.77-12.84h2.3l2.77,12.84h-2.56l-.53-2.75h-1.68l-.5,2.75Zm3.25-4.34h1.33l-.65-4.76Z" transform="translate(-7273.64 -8472.07)"/><path class="cls-1" d="M7298.71,8491.88V8479h2.6v11.05h2.55v1.78Z" transform="translate(-7273.64 -8472.07)"/><path class="cls-1" d="M7304.69,8491.88V8479h2.59v11.05h2.55v1.78Z" transform="translate(-7273.64 -8472.07)"/><path class="cls-1" d="M7280.7,8506.48v-12.84h3.1a3,3,0,0,1,2.44.94,4.17,4.17,0,0,1,.76,2.7,6,6,0,0,1-.17,1.51,3.17,3.17,0,0,1-.47,1.06,2.22,2.22,0,0,1-.77.67,3.5,3.5,0,0,1-1,.36,7.48,7.48,0,0,1-1.27.11v5.49Zm2.62-7.32a2.31,2.31,0,0,0,.37,0l.28-.06a.5.5,0,0,0,.21-.12l.15-.15a.54.54,0,0,0,.1-.21c0-.1.05-.18.06-.24a2.09,2.09,0,0,0,0-.3c0-.14,0-.25,0-.33v-.49c0-.19,0-.33,0-.42s0-.21,0-.36a1.27,1.27,0,0,0-.07-.33,2.35,2.35,0,0,0-.14-.25.54.54,0,0,0-.22-.21,1.54,1.54,0,0,0-.32-.12,1.83,1.83,0,0,0-.45,0Z" transform="translate(-7273.64 -8472.07)"/><path class="cls-1" d="M7286.58,8506.48l2.78-12.84h2.29l2.77,12.84h-2.56l-.53-2.75h-1.68l-.5,2.75Zm3.25-4.34h1.33l-.65-4.76Z" transform="translate(-7273.64 -8472.07)"/><path class="cls-1" d="M7295.25,8506.48v-12.84h2.59v12.84Z" transform="translate(-7273.64 -8472.07)"/><path class="cls-1" d="M7299.37,8506.48v-12.84h1.87l2.82,6.72v-6.72h2.15v12.84h-1.8l-2.81-7.12v7.12Z" transform="translate(-7273.64 -8472.07)"/><path class="cls-1" d="M7309,8506.48v-10.9h-1.88v-1.94h6.32v1.94h-1.85v10.9Z" transform="translate(-7273.64 -8472.07)"/><path class="cls-1" d="M7280.26,8517.41l2.63-.51c0,.26,0,.49,0,.69a5.38,5.38,0,0,0,.08.65,2.26,2.26,0,0,0,.16.58,1,1,0,0,0,.29.38.68.68,0,0,0,.45.15q.77,0,.77-1a3.69,3.69,0,0,0-1.52-2.68l-.8-.68-.61-.54a7.22,7.22,0,0,1-.54-.58,3.8,3.8,0,0,1-.49-.7,4,4,0,0,1-.3-.82,4,4,0,0,1-.13-1,3.19,3.19,0,0,1,1-2.47,3.74,3.74,0,0,1,2.63-.91,3.13,3.13,0,0,1,2.32,1,3.21,3.21,0,0,1,1,2.34v.31l-2.68.37c0-.05,0-.13,0-.25s0-.2,0-.27a3.32,3.32,0,0,0,0-.49,2.64,2.64,0,0,0-.12-.47.82.82,0,0,0-.25-.37.63.63,0,0,0-.41-.14.71.71,0,0,0-.64.33,1.44,1.44,0,0,0-.21.79,2.19,2.19,0,0,0,.12.75,2.1,2.1,0,0,0,.38.65,5.57,5.57,0,0,0,.47.5c.14.13.33.29.57.49l.51.42a11.52,11.52,0,0,1,.93.91,7.35,7.35,0,0,1,.71,1,4.25,4.25,0,0,1,.5,1.16,5.15,5.15,0,0,1,.17,1.34,2.83,2.83,0,0,1-1,2.21,3.38,3.38,0,0,1-2.34.86,3.65,3.65,0,0,1-1.58-.33,2.94,2.94,0,0,1-1.12-.89,4.32,4.32,0,0,1-.65-1.25A5.31,5.31,0,0,1,7280.26,8517.41Z" transform="translate(-7273.64 -8472.07)"/><path class="cls-1" d="M7288.21,8521.09v-12.83h2.59v5.26h1.86v-5.26h2.61v12.83h-2.61v-5.72h-1.86v5.72Z" transform="translate(-7273.64 -8472.07)"/><path class="cls-1" d="M7296.64,8516.87v-4.31q0-4.55,3.75-4.55t3.76,4.55v4.25a8.27,8.27,0,0,1-.11,1.42,5,5,0,0,1-.39,1.24,3.31,3.31,0,0,1-.7,1,3,3,0,0,1-1.07.64,4.31,4.31,0,0,1-1.48.24,4.37,4.37,0,0,1-1.48-.23,3,3,0,0,1-1.07-.63,3.2,3.2,0,0,1-.69-1,4.86,4.86,0,0,1-.39-1.22A8.16,8.16,0,0,1,7296.64,8516.87Zm4.91.58v-5.55q0-1.9-1.16-1.9a1,1,0,0,0-.59.17,1,1,0,0,0-.36.48,3.07,3.07,0,0,0-.16.6,4.38,4.38,0,0,0,0,.64v5.55q0,1.89,1.16,1.89T7301.55,8517.45Z" transform="translate(-7273.64 -8472.07)"/><path class="cls-1" d="M7305.51,8521.09v-12.83h3.1a3,3,0,0,1,2.44.93,4.19,4.19,0,0,1,.76,2.7,6,6,0,0,1-.17,1.51,3.14,3.14,0,0,1-.47,1.06,2.24,2.24,0,0,1-.77.67,3.49,3.49,0,0,1-1,.36,7.09,7.09,0,0,1-1.27.11v5.49Zm2.62-7.32.37,0,.28-.06a.5.5,0,0,0,.21-.12l.15-.15a.5.5,0,0,0,.1-.21c0-.1,0-.18.06-.24a1.46,1.46,0,0,0,0-.3c0-.14,0-.25,0-.33v-.5c0-.19,0-.33,0-.42s0-.22,0-.36a1.31,1.31,0,0,0-.07-.33,1.56,1.56,0,0,0-.13-.25.54.54,0,0,0-.22-.21,1.6,1.6,0,0,0-.32-.11,1.87,1.87,0,0,0-.46-.05Z" transform="translate(-7273.64 -8472.07)"/><path class="cls-1" d="M7273.64,8526.91v-54.84h54.84v54.84Zm52.24-2.59v0Zm-47.05-2.59h44.46v-44.46h-44.46v44.46Z" transform="translate(-7273.64 -8472.07)"/></svg>