<svg id="Layer_1" data-name="Layer 1" xmlns="http://www.w3.org/2000/svg" viewBox="0 0 97.37 28.31"><defs><style>.cls-1{fill:#fff;}</style></defs><title>logo_01</title><path class="cls-1" d="M6669.29,8503q1.66,0,2.3-2.22l1.59.8a5.08,5.08,0,0,1-1.51,2.51,3.63,3.63,0,0,1-2.39.82,3.78,3.78,0,0,1-3.26-1.59,9.25,9.25,0,0,1,0-8.86,4.17,4.17,0,0,1,5.73-.72,4.46,4.46,0,0,1,1.36,2.42l-1.61.59a2.55,2.55,0,0,0-.8-1.39,2.22,2.22,0,0,0-3.29.51,5.71,5.71,0,0,0-.64,3,5.84,5.84,0,0,0,.66,3.07A2.12,2.12,0,0,0,6669.29,8503Z" transform="translate(-6653.29 -8484.23)"/><path class="cls-1" d="M6682.37,8504.76v-5h-3.81v5h-1.83V8493.1h1.83v4.64h3.81v-4.64h1.83v11.65Z" transform="translate(-6653.29 -8484.23)"/><path class="cls-1" d="M6688.26,8504.76V8493.1h1.83v11.65Z" transform="translate(-6653.29 -8484.23)"/><path class="cls-1" d="M6701.33,8496.79a5,5,0,0,1-.38,2,3.09,3.09,0,0,1-1.1,1.37,3,3,0,0,1-1.7.48H6696v4.1h-1.83V8493.1h3.93a3,3,0,0,1,2.42,1A4,4,0,0,1,6701.33,8496.79Zm-1.84,0q0-1.84-1.63-1.84H6696v3.78h1.94a1.42,1.42,0,0,0,1.17-.5A2.23,2.23,0,0,0,6699.49,8496.83Z" transform="translate(-6653.29 -8484.23)"/><path class="cls-1" d="M6712.15,8496.79a5,5,0,0,1-.38,2,3.09,3.09,0,0,1-1.1,1.37,3,3,0,0,1-1.7.48h-2.17v4.1H6705V8493.1h3.93a3,3,0,0,1,2.42,1A4,4,0,0,1,6712.15,8496.79Zm-1.84,0q0-1.84-1.62-1.84h-1.89v3.78h1.94a1.42,1.42,0,0,0,1.17-.5A2.23,2.23,0,0,0,6710.31,8496.83Z" transform="translate(-6653.29 -8484.23)"/><path class="cls-1" d="M6720.09,8500v4.78h-1.82V8500l-3.11-6.87h1.92l2.1,4.93,2.12-4.93h1.92Z" transform="translate(-6653.29 -8484.23)"/><path class="cls-1" d="M6728,8497.33h-1.36l-.16-4.23h1.69Z" transform="translate(-6653.29 -8484.23)"/><path class="cls-1" d="M6739.11,8501.4a3.44,3.44,0,0,1-1,2.62,3.91,3.91,0,0,1-2.79.91,4,4,0,0,1-2.64-.79,3.83,3.83,0,0,1-1.23-2.41l1.77-.39a2.19,2.19,0,0,0,.7,1.34,2.25,2.25,0,0,0,1.45.42q1.92,0,1.92-1.55a1.42,1.42,0,0,0-.22-.82,1.71,1.71,0,0,0-.62-.54,8.41,8.41,0,0,0-1.54-.52,11.31,11.31,0,0,1-1.36-.49,3.47,3.47,0,0,1-.7-.44,2.36,2.36,0,0,1-.53-.61,3,3,0,0,1-.34-.84,4.52,4.52,0,0,1-.12-1.1,3.17,3.17,0,0,1,.89-2.42,3.64,3.64,0,0,1,2.59-.84,3.75,3.75,0,0,1,2.44.68,3.48,3.48,0,0,1,1.05,2.24l-1.77.32a2,2,0,0,0-.56-1.13,1.72,1.72,0,0,0-1.2-.38q-1.66,0-1.66,1.39a1.41,1.41,0,0,0,.18.74,1.45,1.45,0,0,0,.52.49,7.21,7.21,0,0,0,1.41.51,9.15,9.15,0,0,1,1.8.66,2.81,2.81,0,0,1,.86.7,2.85,2.85,0,0,1,.48,1A4.48,4.48,0,0,1,6739.11,8501.4Z" transform="translate(-6653.29 -8484.23)"/><path class="cls-1" d="M6680.46,8487.09v-2.81h.59v2.81Z" transform="translate(-6653.29 -8484.23)"/><path class="cls-1" d="M6683.8,8486.67a.75.75,0,0,0,.74-.54l.51.19a1.23,1.23,0,0,1-.49.61,1.43,1.43,0,0,1-.77.2,1.39,1.39,0,0,1-1-.38,1.75,1.75,0,0,1,0-2.14,1.37,1.37,0,0,1,1-.37,1.47,1.47,0,0,1,.81.2,1.05,1.05,0,0,1,.44.58l-.52.14a.61.61,0,0,0-.26-.34.81.81,0,0,0-.45-.12.74.74,0,0,0-.61.25,1.11,1.11,0,0,0-.21.72,1.13,1.13,0,0,0,.21.74A.75.75,0,0,0,6683.8,8486.67Z" transform="translate(-6653.29 -8484.23)"/><path class="cls-1" d="M6686.33,8487.09v-2.81h2.21v.46h-1.62v.71h1.5v.46h-1.5v.74h1.71v.46Z" transform="translate(-6653.29 -8484.23)"/><path class="cls-1" d="M6693.28,8486.67a.75.75,0,0,0,.74-.54l.51.19a1.23,1.23,0,0,1-.49.61,1.43,1.43,0,0,1-.77.2,1.39,1.39,0,0,1-1-.38,1.75,1.75,0,0,1,0-2.14,1.37,1.37,0,0,1,1-.37,1.47,1.47,0,0,1,.81.2,1.05,1.05,0,0,1,.44.58l-.52.14a.61.61,0,0,0-.26-.34.81.81,0,0,0-.45-.12.74.74,0,0,0-.61.25,1.11,1.11,0,0,0-.21.72,1.13,1.13,0,0,0,.21.74A.75.75,0,0,0,6693.28,8486.67Z" transform="translate(-6653.29 -8484.23)"/><path class="cls-1" d="M6697.74,8487.09l-.65-1.07h-.69v1.07h-.59v-2.81h1.41a1.22,1.22,0,0,1,.78.22.75.75,0,0,1,.27.62.81.81,0,0,1-.17.51.79.79,0,0,1-.45.28l.76,1.18Zm-.07-2q0-.41-.52-.41h-.75v.83h.77a.56.56,0,0,0,.38-.11A.4.4,0,0,0,6697.67,8485.14Z" transform="translate(-6653.29 -8484.23)"/><path class="cls-1" d="M6699.64,8487.09v-2.81h2.21v.46h-1.62v.71h1.5v.46h-1.5v.74h1.71v.46Z" transform="translate(-6653.29 -8484.23)"/><path class="cls-1" d="M6705.25,8487.09l-.25-.72h-1.07l-.25.72h-.59l1-2.81h.7l1,2.81Zm-.79-2.38v0l0,.16-.34,1h.81l-.28-.81-.09-.27Z" transform="translate(-6653.29 -8484.23)"/><path class="cls-1" d="M6709.43,8487.09v-1.71s0-.08,0-.12,0-.21,0-.5c-.09.36-.16.61-.21.75l-.51,1.57h-.42l-.51-1.57-.21-.75q0,.46,0,.61v1.71h-.52v-2.81h.79l.5,1.57,0,.15.1.38.13-.45.52-1.65h.78v2.81Z" transform="translate(-6653.29 -8484.23)"/><path class="cls-1" d="M6715.91,8486.29a.69.69,0,0,1-.29.59,1.33,1.33,0,0,1-.8.21h-1.41v-2.81h1.29a1.4,1.4,0,0,1,.78.18.6.6,0,0,1,.26.53.62.62,0,0,1-.13.41.68.68,0,0,1-.4.22.87.87,0,0,1,.52.21A.62.62,0,0,1,6715.91,8486.29Zm-.75-1.22a.3.3,0,0,0-.12-.27.65.65,0,0,0-.36-.08H6714v.7h.68a.6.6,0,0,0,.36-.09A.31.31,0,0,0,6715.15,8485.06Zm.16,1.18q0-.4-.57-.4H6714v.81h.77a.67.67,0,0,0,.41-.1A.37.37,0,0,0,6715.32,8486.24Z" transform="translate(-6653.29 -8484.23)"/><path class="cls-1" d="M6719.24,8487.09l-.25-.72h-1.07l-.25.72h-.59l1-2.81h.69l1,2.81Zm-.79-2.38v0l0,.16-.34,1h.81l-.28-.81-.09-.27Z" transform="translate(-6653.29 -8484.23)"/><path class="cls-1" d="M6723,8487.09l-.65-1.07h-.69v1.07h-.59v-2.81h1.41a1.22,1.22,0,0,1,.78.22.75.75,0,0,1,.27.62.81.81,0,0,1-.17.51.79.79,0,0,1-.45.28l.76,1.18Zm-.07-2q0-.41-.52-.41h-.75v.83h.77a.56.56,0,0,0,.38-.11A.4.4,0,0,0,6723,8485.14Z" transform="translate(-6653.29 -8484.23)"/><polygon class="cls-1" points="0 28.31 0 1.03 22.4 1.03 22.4 2.02 0.99 2.02 0.99 27.31 96.38 27.31 96.38 2.02 74.97 2.02 74.97 1.03 97.37 1.03 97.37 28.31 0 28.31 0 28.31"/></svg>